<?xml version="1.0" encoding="UTF-8" standalone="no"?>
<svg
   xmlns:dc="http://purl.org/dc/elements/1.1/"
   xmlns:cc="http://creativecommons.org/ns#"
   xmlns:rdf="http://www.w3.org/1999/02/22-rdf-syntax-ns#"
   xmlns:svg="http://www.w3.org/2000/svg"
   xmlns="http://www.w3.org/2000/svg"
   xmlns:sodipodi="http://sodipodi.sourceforge.net/DTD/sodipodi-0.dtd"
   xmlns:inkscape="http://www.inkscape.org/namespaces/inkscape"
   enable-background="new 0 0 85 85"
   height="50"
   id="Layer_1"
   version="1.1"
   viewBox="0 0 50 50"
   width="50"
   xml:space="preserve"
   inkscape:version="0.91 r13725"
   sodipodi:docname="iconfinder_info-alt_383122.svg"><metadata
     id="metadata9"><rdf:RDF><cc:Work
         rdf:about=""><dc:format>image/svg+xml</dc:format><dc:type
           rdf:resource="http://purl.org/dc/dcmitype/StillImage" /><dc:title></dc:title></cc:Work></rdf:RDF></metadata><defs
     id="defs7" /><sodipodi:namedview
     pagecolor="#ffffff"
     bordercolor="#666666"
     borderopacity="1"
     objecttolerance="10"
     gridtolerance="10"
     guidetolerance="10"
     inkscape:pageopacity="0"
     inkscape:pageshadow="2"
     inkscape:window-width="982"
     inkscape:window-height="706"
     id="namedview5"
     showgrid="false"
     inkscape:zoom="2.7764706"
     inkscape:cx="42.5"
     inkscape:cy="42.5"
     inkscape:window-x="10"
     inkscape:window-y="34"
     inkscape:window-maximized="0"
     inkscape:current-layer="Layer_1" /><path
     d="M 25,0.86864405 C 11.672678,0.86864405 0.868644,11.672678 0.868644,25 0.868644,38.327322 11.672678,49.131356 25,49.131356 38.327322,49.131356 49.131356,38.32789 49.131356,25 49.131356,11.67211 38.327322,0.86864405 25,0.86864405 Z M 24.879627,38.494822 c 0,0 -1.119695,0.744381 -1.885085,0.740975 -0.06813,0.03123 -0.108449,0.0494 -0.108449,0.0494 l 0.0017,-0.0494 c -0.160687,-0.0074 -0.322509,-0.03009 -0.485467,-0.07098 l -0.241881,-0.05962 c -1.336593,-0.331593 -2.044068,-1.65683 -1.711339,-2.992855 l 1.86067,-7.501161 0.839771,-3.388043 c 0.781288,-3.145593 -2.477297,0.668865 -3.145593,-0.780152 -0.441178,-0.957873 2.534644,-2.967873 4.708737,-4.483322 0,0 1.118559,-0.743246 1.884517,-0.740407 0.0687,-0.0318 0.109017,-0.0494 0.109017,-0.0494 l -0.0028,0.0494 c 0.161822,0.0074 0.323644,0.03009 0.486601,0.07041 l 0.241882,0.06019 c 1.336593,0.331593 2.150813,1.683517 1.81922,3.019542 l -1.860102,7.501729 -0.841474,3.388043 c -0.780153,3.145593 2.424491,-0.683628 3.09222,0.767093 0.441178,0.956737 -2.588585,2.95311 -4.76211,4.468559 z m 4.716119,-23.446593 c -0.464458,1.87089 -2.357492,3.011593 -4.227814,2.547135 -1.871457,-0.464457 -3.012161,-2.356923 -2.547703,-4.228381 0.464457,-1.871458 2.357491,-3.011593 4.227813,-2.547135 1.871458,0.463889 3.011594,2.356923 2.547704,4.228381 z"
     id="path3"
     inkscape:connector-curvature="0" /></svg>